<svg width="34" height="43" viewBox="0 0 34 43" fill="none" xmlns="http://www.w3.org/2000/svg">
<path d="M12.9743 18.0519V14.4415H8.56158L8.90102 17.41L12.9743 18.0519Z" fill="#FFB647" stroke="black" stroke-width="0.60173"/>
<path d="M2.07456 40.7783C0.951326 40.698 0.938924 41.9847 1.03921 42.6533H9.76506L11.5703 37.7084H7.00957C5.74422 39.4851 4.6268 40.9606 2.07456 40.7783Z" fill="#FFB647" stroke="black" stroke-width="0.60173"/>
<path fill-rule="evenodd" clip-rule="evenodd" d="M6.58304 38.0979C5.47271 39.5975 4.33774 40.7394 2.07454 40.5777C1.98525 40.5713 1.90351 40.5728 1.82872 40.5811L1.13397 41.189C1.12026 41.237 1.10914 41.2866 1.10028 41.3372V42.1552C1.10726 42.2132 1.11499 42.2689 1.1229 42.3217H5.57541L8.57271 37.5078H7.91619L6.58304 38.0979Z" fill="#AA782D"/>
<path d="M6.58304 38.0979L6.46127 37.8228L6.38856 37.855L6.34124 37.9189L6.58304 38.0979ZM2.07454 40.5777L2.05311 40.8778L2.05311 40.8778L2.07454 40.5777ZM1.82872 40.5811L1.79523 40.2821L1.70155 40.2926L1.6306 40.3547L1.82872 40.5811ZM1.13397 41.189L0.935847 40.9626L0.869036 41.0211L0.844663 41.1064L1.13397 41.189ZM1.10028 41.3372L0.803924 41.2853L0.799416 41.3111V41.3372H1.10028ZM1.10028 42.1552H0.799416V42.1733L0.801573 42.1912L1.10028 42.1552ZM1.1229 42.3217L0.825365 42.3663L0.8638 42.6226H1.1229V42.3217ZM5.57541 42.3217V42.6226H5.7425L5.83082 42.4807L5.57541 42.3217ZM8.57271 37.5078L8.82812 37.6669L9.11446 37.207H8.57271V37.5078ZM7.91619 37.5078V37.207H7.85258L7.79441 37.2327L7.91619 37.5078ZM6.34124 37.9189C5.79024 38.663 5.25569 39.2859 4.59862 39.7076C3.95151 40.1228 3.16732 40.3541 2.09598 40.2776L2.05311 40.8778C3.24496 40.9629 4.15985 40.7041 4.92361 40.214C5.67741 39.7302 6.26551 39.0324 6.82484 38.277L6.34124 37.9189ZM2.09598 40.2776C1.99056 40.2701 1.8903 40.2715 1.79523 40.2821L1.86222 40.8801C1.91671 40.874 1.97994 40.8726 2.05311 40.8778L2.09598 40.2776ZM1.6306 40.3547L0.935847 40.9626L1.33209 41.4155L2.02685 40.8076L1.6306 40.3547ZM0.844663 41.1064C0.827763 41.1656 0.814393 41.2255 0.803924 41.2853L1.39664 41.3891C1.40389 41.3477 1.41276 41.3085 1.42327 41.2716L0.844663 41.1064ZM0.799416 41.3372V42.1552H1.40115V41.3372H0.799416ZM0.801573 42.1912C0.808962 42.2526 0.817107 42.3113 0.825365 42.3663L1.42044 42.2771C1.41287 42.2266 1.40556 42.1738 1.39899 42.1193L0.801573 42.1912ZM1.1229 42.6226H5.57541V42.0208H1.1229V42.6226ZM5.83082 42.4807L8.82812 37.6669L8.31731 37.3488L5.32001 42.1627L5.83082 42.4807ZM8.57271 37.207H7.91619V37.8087H8.57271V37.207ZM7.79441 37.2327L6.46127 37.8228L6.70482 38.373L8.03796 37.783L7.79441 37.2327Z" fill="black"/>
<path d="M13.3754 33.2957L9.46417 42.6225H33.3328C33.3328 41.3703 33.1282 40.3114 32.7568 39.4133C32.1293 37.5078 19.514 34.6111 13.3754 33.2957Z" fill="#004672" stroke="black" stroke-width="0.60173"/>
<path d="M24.7195 17.808C25.2571 16.0664 23.7801 16.1448 23.1351 16.9096L21.6308 18.3137L22.4082 19.6174L23.2145 19.235L24.7195 17.808Z" fill="#FFB647" stroke="black" stroke-width="0.60173"/>
<path d="M21.2491 18.2758L17.0085 21.783C16.8301 21.9305 16.7522 22.1673 16.8081 22.3919L17.1059 23.5894C17.211 24.012 17.7162 24.1865 18.0597 23.9188L22.6304 20.3565C22.8635 20.1748 22.9302 19.8509 22.7879 19.592L22.1599 18.4496C21.978 18.1188 21.54 18.0352 21.2491 18.2758Z" fill="#004672" stroke="black" stroke-width="0.60173"/>
<path d="M6.68781 38.0705V17.5114V16.4082C7.08896 16.4082 8.65346 16.5285 11.7022 17.0099C14.6708 17.0902 16.4158 18.7148 16.9172 19.5171L20.0262 36.7667C20.3092 38.5112 8.49957 37.4572 6.68781 38.0705Z" fill="#00A8CC" stroke="black" stroke-width="0.60173"/>
<path d="M25.2412 16.8151L22.6337 20.0186L24.5391 21.8295L26.3443 20.626C28.651 19.1217 27.2566 14.5799 25.2412 16.8151Z" fill="#FFB647" stroke="black" stroke-width="0.60173"/>
<path d="M9.99735 23.5287L14.8759 28.2329C15.301 28.6429 15.9608 28.6838 16.4333 28.3294L24.2389 22.4752C24.7858 22.065 24.8816 21.2822 24.4498 20.7522L23.7232 19.8605C23.3325 19.381 22.6419 19.2757 22.1261 19.6171L17.0351 22.9861C16.558 23.3018 15.9246 23.238 15.52 22.8335L13.1063 20.4197C11.4214 18.8151 8.29245 22.0244 9.99735 23.5287Z" fill="#004672" stroke="black" stroke-width="0.60173"/>
<path d="M15.5244 4.93429L15.9907 1.65933L10.3049 2.25019L4.51163 8.59943L4.81225 11.4922C5.12737 14.5246 7.10273 15.4218 8.05101 15.4913C9.51749 15.3725 12.6983 15.0254 13.7368 14.9004C14.9829 14.7504 16.139 12.8848 16.25 11.9169L15.5244 4.93429Z" fill="#FFB647"/>
<path d="M4.81225 11.4922C5.12737 14.5246 7.10273 15.4218 8.05101 15.4913C9.51749 15.3725 12.6983 15.0254 13.7368 14.9004C14.9829 14.7504 16.139 12.8848 16.25 11.9169L15.5244 4.93429L15.9907 1.65933L10.3049 2.25019L4.51163 8.59943M4.81225 11.4922C4.70488 10.459 4.55961 9.06111 4.51163 8.59943M4.81225 11.4922L4.51163 8.59943M4.51163 8.59943C4.41879 7.70603 4.83571 11.6914 4.51163 8.59943Z" stroke="black" stroke-width="0.60173"/>
<path d="M5.18352 9.08716L11.0869 2.82731C5.88554 -2.24542 -0.53292 3.97246 5.18352 9.08716Z" fill="#004672" stroke="black" stroke-width="0.60173"/>
<path fill-rule="evenodd" clip-rule="evenodd" d="M15.5389 4.83195L11.2507 5.27757C11.1771 5.28522 11.1137 5.33281 11.0857 5.40135L9.88302 8.35153C9.84624 8.44174 9.74768 8.49147 9.65174 8.47452C6.53322 7.92348 5.82246 11.3829 8.36079 12.3215C8.43523 12.3491 8.49108 12.4158 8.49928 12.4947L8.79238 15.3152C8.79647 15.3545 8.78881 15.3936 8.77113 15.4279C8.50373 15.4528 8.25997 15.4743 8.05101 15.4913C7.10273 15.4218 5.12737 14.5246 4.81225 11.4922L4.51163 8.59943L10.3049 2.25019L15.9907 1.65933L15.5389 4.83195Z" fill="#00A8CC"/>
<path d="M11.2507 5.27757L11.2818 5.57683L11.2507 5.27757ZM15.5389 4.83195L15.57 5.13121L15.8037 5.10693L15.8368 4.87436L15.5389 4.83195ZM11.0857 5.40135L10.8071 5.28777L10.8071 5.28778L11.0857 5.40135ZM9.88302 8.35153L10.1616 8.46511L10.1616 8.46511L9.88302 8.35153ZM9.65174 8.47452L9.59939 8.77079L9.59939 8.77079L9.65174 8.47452ZM8.36079 12.3215L8.46514 12.0394L8.46514 12.0394L8.36079 12.3215ZM8.49928 12.4947L8.20003 12.5258L8.49928 12.4947ZM8.79238 15.3152L9.09163 15.2841L8.79238 15.3152ZM8.77113 15.4279L8.79901 15.7275L8.963 15.7122L9.03851 15.5658L8.77113 15.4279ZM8.05101 15.4913L8.02902 15.7913L8.05217 15.793L8.0753 15.7911L8.05101 15.4913ZM4.51163 8.59943L4.28938 8.39664L4.19843 8.49631L4.21238 8.63052L4.51163 8.59943ZM10.3049 2.25019L10.2738 1.95093L10.1598 1.96277L10.0826 2.0474L10.3049 2.25019ZM15.9907 1.65933L16.2885 1.70174L16.3429 1.32025L15.9596 1.36007L15.9907 1.65933ZM11.2818 5.57683L15.57 5.13121L15.5078 4.5327L11.2196 4.97832L11.2818 5.57683ZM11.3643 5.51494C11.3504 5.54921 11.3187 5.573 11.2818 5.57683L11.2196 4.97832C11.0356 4.99745 10.877 5.11641 10.8071 5.28777L11.3643 5.51494ZM10.1616 8.46511L11.3643 5.51493L10.8071 5.28778L9.60442 8.23795L10.1616 8.46511ZM9.59939 8.77079C9.82357 8.8104 10.0671 8.69694 10.1616 8.46511L9.60442 8.23795C9.62538 8.18653 9.67178 8.17253 9.7041 8.17824L9.59939 8.77079ZM8.46514 12.0394C7.3319 11.6203 6.96902 10.6712 7.17512 9.91888C7.37697 9.18211 8.16433 8.51722 9.59939 8.77079L9.7041 8.17824C8.02063 7.88078 6.89335 8.67006 6.59477 9.75989C6.30044 10.8342 6.85135 12.0841 8.25643 12.6037L8.46514 12.0394ZM8.79854 12.4636C8.77749 12.261 8.63767 12.1032 8.46514 12.0394L8.25643 12.6037C8.2328 12.595 8.20467 12.5705 8.20003 12.5258L8.79854 12.4636ZM9.09163 15.2841L8.79854 12.4636L8.20003 12.5258L8.49313 15.3463L9.09163 15.2841ZM9.03851 15.5658C9.0827 15.4802 9.10185 15.3824 9.09163 15.2841L8.49313 15.3463C8.49108 15.3266 8.49493 15.307 8.50374 15.29L9.03851 15.5658ZM8.0753 15.7911C8.28585 15.7741 8.53088 15.7524 8.79901 15.7275L8.74324 15.1283C8.47657 15.1531 8.23409 15.1746 8.02672 15.1914L8.0753 15.7911ZM4.51299 11.5233C4.84405 14.7091 6.94392 15.7118 8.02902 15.7913L8.07301 15.1912C7.26153 15.1317 5.41069 14.3402 5.1115 11.4611L4.51299 11.5233ZM4.21238 8.63052L4.51299 11.5233L5.1115 11.4611L4.81089 8.56833L4.21238 8.63052ZM10.0826 2.0474L4.28938 8.39664L4.73389 8.80222L10.5271 2.45298L10.0826 2.0474ZM15.9596 1.36007L10.2738 1.95093L10.336 2.54944L16.0218 1.95858L15.9596 1.36007ZM15.8368 4.87436L16.2885 1.70174L15.6928 1.61692L15.2411 4.78954L15.8368 4.87436Z" fill="black"/>
<path d="M13.0527 8.31682L13.229 10.0126" stroke="black" stroke-width="0.60173"/>
</svg>
