<?xml version="1.0" encoding="iso-8859-1"?>
<!-- Generator: Adobe Illustrator 19.0.0, SVG Export Plug-In . SVG Version: 6.00 Build 0)  -->
<svg version="1.1" id="Layer_1" xmlns="http://www.w3.org/2000/svg" xmlns:xlink="http://www.w3.org/1999/xlink" x="0px" y="0px"
	 viewBox="0 0 495 495" style="enable-background:new 0 0 495 495;" xml:space="preserve">
<g>
	<polygon style="fill:#FFDE55;" points="434.477,227.821 478.869,178.66 414.058,164.981 381.022,107.57 381.022,266.658 
		441.496,293.688 	"/>
	<polygon style="fill:#FFEB99;" points="347.986,164.981 283.175,178.66 327.568,227.821 320.55,293.688 381.022,266.658 
		381.022,107.57 	"/>
	<path style="fill:#FFEB99;" d="M288.544,458.73c-90.69-22.63-160.01-108.71-160.01-211.23s69.32-188.6,160.01-211.23
		c30.19-7.54,59.89-8.18,87.48-3.08C339.614,12.12,297.374,0,252.284,0c-136.7,0-247.5,110.81-247.5,247.5s110.8,247.5,247.5,247.5
		c45.09,0,87.33-12.12,123.74-33.19C348.434,466.91,318.734,466.27,288.544,458.73z"/>
	<path style="fill:#FFDE55;" d="M252.284,247.5c0-91.59,49.79-171.51,123.74-214.31c-27.59-5.1-57.29-4.46-87.48,3.08
		c-90.69,22.63-160.01,108.71-160.01,211.23s69.32,188.6,160.01,211.23c30.19,7.54,59.89,8.18,87.48,3.08
		C302.074,419.01,252.284,339.09,252.284,247.5z"/>
	<polygon style="fill:#FFDE55;" points="490.216,342.579 457.992,335.777 441.565,307.228 441.566,386.332 471.637,399.771 
		468.144,367.021 	"/>
	<polygon style="fill:#FFEB99;" points="425.138,335.777 392.914,342.579 414.987,367.022 411.498,399.771 441.566,386.332 
		441.565,307.228 	"/>
</g>
<g>
</g>
<g>
</g>
<g>
</g>
<g>
</g>
<g>
</g>
<g>
</g>
<g>
</g>
<g>
</g>
<g>
</g>
<g>
</g>
<g>
</g>
<g>
</g>
<g>
</g>
<g>
</g>
<g>
</g>
</svg>
